<svg width="22" height="23" viewBox="0 0 22 23" fill="none" xmlns="http://www.w3.org/2000/svg">
<path id="home" d="M13.7727 1.37657C12.1772 0.00900173 9.82283 0.00900126 8.22734 1.37657L0.662698 7.86055C0.0916611 8.35001 0.437803 9.28571 1.1899 9.28571C1.63731 9.28571 2 9.64841 2 10.0958V20C2 21.6569 3.34315 23 5 23C6.65685 23 8 21.6569 8 20V19.1429C8 17.486 9.34315 16.1429 11 16.1429C12.6569 16.1429 14 17.486 14 19.1429V20C14 21.6569 15.3431 23 17 23C18.6569 23 20 21.6569 20 20V9.98196C20 9.54513 20.3621 9.19527 20.7986 9.21024C21.5283 9.23526 21.8819 8.32736 21.3276 7.85224L13.7727 1.37657Z" fill="black"/>
</svg>
