<svg width="24" height="24" viewBox="0 0 24 24" fill="none" xmlns="http://www.w3.org/2000/svg">
<path id="Vector" d="M1.72166 0C0.770816 0 0 0.770815 0 1.72166C0 2.67251 0.770815 3.44333 1.72166 3.44333H22.2783C23.2292 3.44333 24 2.67251 24 1.72166C24 0.770815 23.2292 0 22.2783 0H1.72166ZM1.72166 10.2267C0.770816 10.2267 0 10.9975 0 11.9483C0 12.8992 0.770815 13.67 1.72166 13.67H22.2783C23.2292 13.67 24 12.8992 24 11.9483C24 10.9975 23.2292 10.2267 22.2783 10.2267H1.72166ZM1.72166 20.5567C0.770816 20.5567 0 21.3275 0 22.2783C0 23.2292 0.770815 24 1.72166 24H22.2783C23.2292 24 24 23.2292 24 22.2783C24 21.3275 23.2292 20.5567 22.2783 20.5567H1.72166Z" fill="black"/>
</svg>
