<svg width="24" height="24" viewBox="0 0 24 24" fill="none" xmlns="http://www.w3.org/2000/svg">
<path id="search" d="M10.4207 0.0148654C10.4111 0.0243836 10.3981 0.0297251 10.3847 0.029752C4.65628 0.041199 0 4.70452 0 10.4355C0 16.1736 4.66774 20.8413 10.4058 20.8413C11.9681 20.8413 13.5069 20.5111 14.854 19.8718C15.141 19.7355 15.4833 19.8058 15.7276 20.0089L18.7007 22.9819C18.9752 23.2908 19.31 23.5404 19.6844 23.7152C20.0589 23.8901 20.4651 23.9865 20.8782 23.9987C21.2913 24.0108 21.7025 23.9384 22.0866 23.7859C22.4707 23.6334 22.8196 23.404 23.1118 23.1118C23.404 22.8196 23.6334 22.4707 23.7859 22.0866C23.9384 21.7025 24.0108 21.2913 23.9987 20.8782C23.9865 20.4651 23.8901 20.0589 23.7152 19.6844C23.5404 19.31 23.2908 18.9752 22.9819 18.7007L20.0089 15.7276C19.764 15.4827 19.6644 15.1076 19.8144 14.7954C20.4521 13.4678 20.8413 11.9712 20.8413 10.4058C20.8413 4.67479 16.185 0.0114681 10.4567 2.11194e-05C10.4432 -5.77915e-06 10.4302 0.00534725 10.4207 0.0148654ZM10.3909 3.01768C10.4004 3.00816 10.4135 3.00281 10.4269 3.00284C14.5496 3.01408 17.8385 6.30999 17.8385 10.4355C17.8385 12.3978 17.125 14.2113 15.8763 15.5492C15.8465 15.579 15.8168 15.6087 15.7871 15.6384C15.6466 15.7551 15.5173 15.8845 15.4006 16.0249C14.0924 17.2142 12.3086 17.898 10.3761 17.898C6.24348 17.898 2.94335 14.5978 2.94335 10.4653C2.94335 6.33972 6.23222 3.04381 10.3549 3.03257C10.3684 3.03254 10.3814 3.0272 10.3909 3.01768Z" fill="black"/>
</svg>
